PathFileType	4	(X/Y/Z)	C:/Users/beibeiliu/ov580/test_trc/User3\sequence.17_training_dense_right.trc
DataRate	CameraRate	NumFrames	NumMarkers	Units	OrigDataRate	OrigDataStartFrame	OrigNumFrames
120	120	22	19	mm	120	79	105
Frame#	Time	ThumbCMC			ThumbMCP			ThumbIP			ThumbTip			IndexMCP			IndexPIP			IndexTip			MiddleMCP			MiddlePIP			MiddleTip			RingMCP			RingPIP			RingTip			PinkyMCP			PinkyPIP			PinkyTip			BackHand1			BackHand2			BackHand3	
		X0	Y0	Z0	X1	Y1	Z1	X2	Y2	Z2	X3	Y3	Z3	X4	Y4	Z4	X5	Y5	Z5	X6	Y6	Z6	X7	Y7	Z7	X8	Y8	Z8	X9	Y9	Z9	X10	Y10	Z10	X11	Y11	Z11	X12	Y12	Z12	X13	Y13	Z13	X14	Y14	Z14	X15	Y15	Z15	X16	Y16	Z16	X17	Y17	Z17	X18	Y18	Z18	
78	0.65	209.459	62.4823	23.2311	185.695	81.5965	3.1332	155.688	81.4921	-19.0334	135.357	61.9584	-16.0343	181.535	41.5362	-44.0422	159.043	65.5669	-54.942	152.674	79.1762	-24.5289	167.847	26.8616	-43.1046	140.495	47.4836	-48.3746	144.726	63.7064	-12.7864	151.31	17.0049	-31.0776	128.33	38.0061	-31.7955	134.747	56.1301	-5.34171	141.082	11.1836	-13.579	123.566	29.855	-14.0314	130.508	51.327	6.89272	189.946	0.475731	10.9295	202.447	0.692501	39.3576	214.341	22.7899	14.0134	
79	0.658333	212.073	56.4247	23.5567	195.442	80.0385	1.93764	170.635	85.4179	-11.6865	144.987	72.9977	-14.6283	182.209	45.6504	-47.1182	162.205	71.0592	-50.5623	168.079	85.8755	-22.1805	166.302	32.5344	-43.6025	145.889	58.4828	-48.9877	154.939	71.7989	-8.61438	151.857	24.7984	-29.3914	132.028	51.517	-34.7056	140.379	66.7447	-4.78596	135.937	19.315	-13.7016	127.544	44.035	-18.766	131.918	63.0201	7.76702	180.536	0.611901	13.3345	191.004	-1.76805	38.1338	210.525	18.2028	17.3901	
80	0.666667	215.307	44.3272	27.241	202.513	70.0903	0.648222	180.197	79.5273	-16.8089	152.484	75.0431	-21.9718	187.113	34.2659	-45.9815	177.441	65.1962	-53.1384	179.203	78.8398	-22.5972	169.18	26.7979	-44.8883	154.596	55.4041	-51.1262	163.632	69.755	-14.7141	154.66	20.3809	-32.2601	142.096	48.0455	-40.891	148.208	67.0276	-12.4041	142.052	17.9335	-17.1552	131.44	44.3368	-24.8216	138.548	62.0308	0.472809	176.252	-4.44734	14.2183	181.269	-7.14734	41.6315	207.142	7.60661	21.256	
81	0.675	214.24	35.1455	29.2801	204.811	57.6629	1.84944	186.823	66.6708	-21.6315	161.306	58.5394	-26.3059	199.878	19.7964	-45.0318	189.804	48.8832	-55.5398	187.415	66.9615	-26.154	176.201	10.9716	-47.6918	165.553	41.6628	-53.4733	170.609	57.0838	-19.214	160.41	6.68958	-36.1153	152.023	36.0725	-46.8641	151.048	54.4852	-17.9293	146.94	5.42302	-21.7408	138.086	29.0679	-33.2995	141.195	52.4009	-15.1124	175.441	-14.0908	18.9421	175.383	-16.5435	47.1215	203.477	-4.8887	26.0124	
82	0.683333	211.714	37.8234	29.0503	198.41	53.1808	0.0736299	181.131	54.6614	-25.977	158.71	44.915	-35.0423	203.273	10.0443	-42.5529	192.469	33.64	-58.9697	181.898	54.5604	-38.1464	188.947	-1.65291	-43.5128	177.46	22.4479	-61.1163	167.2	45.677	-24.6983	170.915	-6.6224	-36.3585	157.914	18.63	-49.7522	151.005	39.1018	-28.8694	156.629	-11.0742	-18.7093	144.294	7.97398	-38.1446	140.367	33.8916	-28.0524	181.55	-21.9881	17.7432	183.427	-20.2639	47.3397	209.582	-4.02927	28.0401	
83	0.691667	205.384	40.3024	31.4964	192.144	55.4677	-1.88811	177.733	54.8341	-26.6715	158.05	40.3319	-40.7802	211.282	8.55841	-38.4476	196.591	29.2961	-63.6168	179.497	52.9487	-47.9294	198.238	-7.33885	-41.2917	182.447	11.0266	-64.0986	163.823	37.8532	-41.0032	183.578	-12.485	-31.8527	165.528	0.32943	-53.3877	151.458	29.8598	-39.0112	166.577	-18.8936	-21.8803	154.289	-4.09705	-41.3275	141.753	18.3642	-38.4201	191.112	-23.3888	21.4701	188.352	-19.3188	53.1478	215.732	0.311747	31.3875	
84	0.7	203.455	44.5037	30.0378	190.756	55.2427	-1.2638	177.251	58.0274	-30.6371	160.668	45.3736	-42.4574	217.517	13.9599	-41.3795	199.838	23.2666	-67.6955	177.186	45.419	-65.5883	203.377	-4.71034	-40.6024	185.702	7.01176	-70.3873	157.66	31.5486	-59.4337	189.475	-14.7479	-35.4919	168.946	-9.95879	-57.8755	152.601	18.4481	-55.4897	168.988	-23.403	-15.6302	154.693	-19.1719	-41.3938	143.19	5.07286	-47.8475	198.462	-16.8642	18.0595	194.03	-16.5082	48.8332	215.098	5.41641	28.8332	
85	0.708333	204.826	44.4804	26.1936	194.43	60.3428	-1.44069	182.334	63.2544	-29.1303	167.285	61.9116	-48.2843	215.564	12.5354	-40.6704	206.418	18.7253	-71.9748	182.628	37.0263	-83.8642	204.544	-7.74802	-46.1422	191.143	-5.04883	-72.5011	160.862	21.6574	-83.1012	185.775	-22.098	-34.7615	176.739	-18.2348	-60.565	150.973	1.48431	-71.608	166.156	-27.2752	-19.0436	153.133	-28.4555	-39.9861	139.174	-7.405	-56.0037	196.328	-16.2569	19.6471	192.386	-14.3905	50.2315	214.22	5.79376	30.7774	
86	0.716667	206.651	45.6555	24.4943	197.756	64.7507	0.919523	189.07	73.8763	-29.6004	176.065	77.3836	-47.018	214.808	12.2738	-46.0468	208.439	16.9509	-71.5459	187.474	27.9418	-95.724	202.428	-11.9838	-44.7917	192.413	-10.7556	-76.1321	168.02	7.52378	-98.7231	185.826	-25.2227	-36.8424	178.303	-24.415	-63.866	159.299	-11.8977	-84.7175	165.569	-29.8689	-17.564	154.681	-35.6428	-40.2539	139.574	-29.2955	-58.5685	194.842	-18.0963	15.536	195.43	-18.4122	47.0933	216.132	4.82202	24.4013	
87	0.725	198.944	48.7844	27.2262	188.756	65.6484	-1.55061	179.332	79.336	-27.1742	168.13	83.3635	-47.5439	209.544	18.4648	-47.3381	204.447	23.4926	-72.4498	193.552	31.2462	-97.1564	203.376	-6.21827	-49.2556	196.26	-5.41547	-76.4655	176.126	-3.896	-103.249	190.686	-21.7947	-37.8717	182.631	-28.0337	-63.1958	169.199	-25.3672	-87.0105	170.592	-35.0344	-17.5508	162.341	-42.0926	-38.3092	145.807	-46.5657	-59.0102	199.973	-17.6515	16.171	199.07	-14.5189	42.9312	213.746	12.0865	25.3864	
88	0.733333	181.754	54.6539	28.9338	165.379	70.1843	2.69942	153.193	75.7956	-21.8557	141.107	78.3786	-42.4947	197.49	32.4668	-47.5152	190.629	35.1832	-76.5121	179.211	39.8091	-100.371	200.862	3.77615	-50.8295	194.612	2.90592	-76.2161	179.407	1.65878	-107.621	195.593	-9.33708	-42.2416	191.151	-17.5499	-67.2204	179.679	-26.1657	-92.2937	185.734	-28.9097	-20.1347	180.017	-43.2806	-41.3271	170.076	-52.3805	-63.5456	205.058	-3.37077	8.7927	207.495	-2.44649	38.2468	209.873	27.7228	20.9881	
89	0.741667	160.276	54.1223	24.1442	139.143	60.5915	4.4726	122.841	66.3888	-21.2903	111.025	64.5548	-36.5177	177.799	45.0066	-48.4531	169.157	48.5702	-72.7165	161.903	42.537	-100.704	193.05	20.1141	-51.3519	186.91	18.6436	-81.3183	173.981	11.8397	-111.326	196.641	4.2914	-44.777	196.062	-4.88246	-66.6702	189.052	-10.1538	-93.1117	197.64	-20.6721	-23.7277	198.141	-28.5431	-42.9918	196.641	-41.4787	-63.1651	205.813	9.77832	9.64876	208.229	9.76711	35.9912	196.198	43.7051	16.6384	
90	0.75	140.094	49.5221	27.2048	117.632	50.1457	3.35427	100.197	50.4618	-21.4955	85.6965	47.1239	-36.4276	156.638	51.973	-50.0267	150.542	48.1201	-73.5428	140.778	46.3253	-97.4715	182.049	32.0612	-51.7184	175.585	29.8783	-81.7478	168.857	21.5408	-110.117	193.47	15.5247	-43.8307	193.202	10.7713	-73.1625	190.238	1.45914	-98.4718	200.121	-4.612	-26.0523	207.363	-15.3794	-46.786	207.695	-22.9836	-66.4343	197.28	25.9762	3.4595	199.383	27.3706	37.522	177.868	52.7231	16.2875	
91	0.758333	129.763	40.7494	26.2096	104.317	38.095	3.42189	88.9973	31.6627	-15.041	73.5613	27.6096	-33.0679	143.434	49.1713	-49.8266	131.442	48.4364	-76.4421	124.668	43.6589	-98.7937	169.689	39.546	-54.2645	165.598	36.7472	-85.9229	160.229	28.4056	-113.744	185.078	27.7624	-46.9701	190.019	22.7293	-74.5649	186.221	16.7119	-97.6026	201.354	6.88753	-26.706	208.185	2.28038	-50.6963	212.567	-4.08649	-69.127	189.442	35.172	2.01015	192.889	35.2175	34.5329	162.213	53.4232	18.9564	
92	0.766667	119.645	34.8445	24.4708	101.449	25.105	4.45371	80.8558	18.9156	-15.4516	72.7608	10.3411	-34.6445	129.95	47.4738	-48.8169	120.391	46.2711	-76.0789	116.243	40.4853	-98.9287	160.285	44.4185	-54.1475	155.179	41.951	-84.1865	156.756	33.2068	-111.48	177.047	34.7181	-46.8092	182.998	33.5587	-69.5811	184.751	25.4943	-101.598	198.956	19.2883	-30.8279	204.283	17.3705	-47.3029	212.328	12.6056	-71.9479	181.878	41.2372	3.39865	186.17	41.3141	35.3859	151.287	51.6413	18.4773	
93	0.775	116.852	29.7639	25.0459	96.0489	17.4692	6.23231	79.6442	9.81612	-19.6491	66.6959	0.19949	-33.4597	126.352	43.4801	-48.4538	115.571	41.7426	-72.8727	114.103	35.6722	-99.7739	153.677	44.7359	-52.0597	155.472	41.3622	-85.2473	151.335	33.8969	-114.487	174.655	36.317	-47.369	178.711	35.7147	-69.6486	179.018	32.0111	-95.5345	194.925	23.5415	-29.3454	205.053	23.1798	-47.9346	212.168	19.9977	-71.3413	179.043	43.327	1.97308	176.577	44.2295	36.492	145.52	53.0514	15.06	
94	0.783333	117.041	26.2908	27.8544	96.7355	14.0494	7.83207	78.4666	5.12149	-18.5218	70.2429	-5.83123	-37.6015	128.525	40.1907	-50.8773	118.747	38.1326	-77.0361	110.847	34.1779	-98.2431	154.874	43.049	-54.3164	154.454	39.4839	-84.9223	153.363	32.4795	-115.332	176.179	36.5207	-47.1026	180.825	34.6211	-69.7479	184.255	31.0962	-95.9351	191.468	23.7269	-26.8767	202.244	24.6925	-48.0957	213.204	22.6039	-72.5667	176.945	42.2742	2.91514	177.857	44.5459	30.84	142.096	52.4529	18.7264	
95	0.791667	114.187	26.4624	25.6047	95.0241	14.3063	6.92601	78.6744	3.89094	-20.3103	73.9779	-6.12454	-36.1588	127.193	39.8306	-47.9562	120.635	36.8477	-76.1728	113.515	32.1742	-98.1972	159.219	40.4967	-52.0477	155.525	38.819	-82.7105	156.71	31.4537	-112.438	175.112	34.8944	-44.3869	179.966	33.7027	-69.3067	184.265	29.1509	-96.1156	193.49	23.5623	-27.7734	205.778	22.1834	-49.0764	214.261	19.2787	-68.6109	175.245	43.968	3.9441	177.856	45.5136	32.3604	146.123	50.2783	14.3913	
96	0.8	113.77	27.1045	25.2555	99.8599	13.6094	2.89568	82.544	4.15368	-16.6875	72.9662	-6.48878	-35.9717	127.172	39.1261	-48.5863	118.856	36.288	-72.407	119.001	31.4258	-97.3282	156.617	39.9508	-56.7159	159.71	36.6149	-82.8967	155.753	30.4322	-110.472	178.851	31.6426	-43.1572	182.335	31.1186	-73.029	181.535	27.4417	-98.6196	198.529	20.3731	-24.2213	203.814	20.317	-49.3398	216.133	18.8187	-65.7182	174.963	41.4608	6.12438	175.869	44.6754	32.3175	145.134	49.9745	18.9851	
97	0.808333	113.367	24.8938	26.3233	100.203	13.251	5.53783	79.0835	3.91947	-14.1036	73.4077	-7.32906	-34.9718	130.949	36.6796	-47.9668	121.702	32.5192	-73.2304	117.638	27.6553	-97.5126	156.557	37.617	-55.7784	155.622	33.8203	-81.0047	155.725	25.5196	-112.594	178.675	29.1228	-46.0846	184.281	27.3662	-68.1529	186.554	21.7948	-95.4834	195.148	17.5073	-24.7398	209.047	15.2372	-47.1364	218.745	13.3077	-67.7953	177.988	37.8814	4.61814	177.884	42.9915	32.8761	144.733	47.7304	17.2658	
98	0.816667	113.613	22.7773	30.885	97.2524	10.6149	10.4189	82.7774	1.48108	-13.3841	70.4796	-8.94752	-34.1008	131.42	32.9979	-46.9666	123.758	29.1881	-72.4919	113.47	24.8048	-97.4055	159.205	33.3484	-53.565	157.309	29.2555	-82.6659	153.33	21.7909	-108.664	178.687	24.6657	-40.9646	182.454	23.4673	-66.2192	184.558	17.4918	-92.2587	198.534	12.2004	-20.5551	204.226	13.2256	-47.095	214.545	8.7529	-65.963	174.928	34.929	8.0674	178.882	38.4449	37.6443	143.464	44.4089	16.4781	
99	0.825	113.953	21.8356	29.4391	99.0435	8.35616	9.31171	81.2514	-0.392243	-15.5866	69.4578	-10.5933	-34.0377	127.859	30.5339	-45.4975	120.005	27.343	-69.4566	114.794	21.0982	-97.2383	155.803	32.0858	-52.7887	156.529	26.9118	-78.6894	152.459	18.5054	-109.447	177.626	22.7751	-42.5552	183.938	20.3104	-68.0165	186.491	13.7169	-93.1539	199.055	11.3996	-22.7472	208.731	8.66689	-43.4622	215.079	8.19445	-65.4779	176.967	31.6016	5.87303	181.038	36.4458	37.1616	144.622	41.3215	18.9291	
